<?xml version="1.0" encoding="UTF-8" standalone="no"?>
<svg
   width="60"
   height="45"
   viewBox="0 0 60 45"
   fill="none"
   version="1.1"
   id="svg13"
   sodipodi:docname="flag-of-new-caledonia-1670681657-logotic-brand.svg"
   xmlns:inkscape="http://www.inkscape.org/namespaces/inkscape"
   xmlns:sodipodi="http://sodipodi.sourceforge.net/DTD/sodipodi-0.dtd"
   xmlns="http://www.w3.org/2000/svg"
   xmlns:svg="http://www.w3.org/2000/svg">
  <sodipodi:namedview
     id="namedview13"
     pagecolor="#ffffff"
     bordercolor="#666666"
     borderopacity="1.0"
     inkscape:showpageshadow="2"
     inkscape:pageopacity="0.0"
     inkscape:pagecheckerboard="0"
     inkscape:deskcolor="#d1d1d1" />
  <g
     clip-path="url(#clip0_2714_15624)"
     id="g13">
    <path
       d="M 0,0 H 60 V 45 H 0 Z"
       fill="#009543"
       id="path1" />
    <path
       d="M 0,0 H 60 V 30 H 0 Z"
       fill="#ed4135"
       id="path2" />
    <path
       d="M 0,0 H 60 V 15 H 0 Z"
       fill="#0035ad"
       id="path3" />
    <path
       d="m 22.5,37.2467 c 8.1445,0 14.7469,-6.6024 14.7469,-14.7469 0,-8.1445 -6.6024,-14.74687 -14.7469,-14.74687 -8.1444,0 -14.74683,6.60237 -14.74683,14.74687 0,8.1445 6.60243,14.7469 14.74683,14.7469 z"
       fill="#fae600"
       id="path4" />
    <path
       fill-rule="evenodd"
       clip-rule="evenodd"
       d="m 22.5,8.00176 c -8.0073,0 -14.49849,6.49114 -14.49849,14.49844 0,8.0073 6.49119,14.4984 14.49849,14.4984 8.0072,0 14.4984,-6.4911 14.4984,-14.4984 C 36.9984,14.4929 30.5072,8.00176 22.5,8.00176 Z M 7.50464,22.5002 c 0,-8.2817 6.71366,-14.99532 14.99536,-14.99532 8.2816,0 14.9953,6.71362 14.9953,14.99532 0,8.2817 -6.7137,14.9953 -14.9953,14.9953 -8.2817,0 -14.99536,-6.7136 -14.99536,-14.9953 z"
       fill="#000000"
       id="path5" />
    <path
       d="m 19.9968,24.7029 h 4.9969 z m 0,-3.7031 h 4.9969 z M 22.5,7.7998 v 25.2 z"
       fill="#000000"
       id="path6" />
    <path
       fill-rule="evenodd"
       clip-rule="evenodd"
       d="m 22.2,20.6998 v -12.9 h 0.6 v 12.9 h 2.1937 v 0.6 H 22.8 v 3.1031 h 2.1937 v 0.6 H 22.8 v 7.9969 h -0.6 v -7.9969 h -2.2032 v -0.6 H 22.2 v -3.1031 h -2.2032 v -0.6 z"
       fill="#000000"
       id="path7" />
    <path
       d="m 16.5562,36.0376 c 6.0187,2.4656 11.6625,0.1594 11.6625,0.1594 0,0 -2.1282,-2.3063 -3.2157,-3.2063 -1.0687,-0.8812 -4.2,-0.8437 -5.2687,0 -1.1076,0.9641 -2.1682,1.9809 -3.1781,3.0469 z"
       fill="#000000"
       id="path8" />
    <path
       d="m 22.5001,31.697 c 0.9113,0 1.65,-1.0745 1.65,-2.4 0,-1.3255 -0.7387,-2.4 -1.65,-2.4 -0.9113,0 -1.65,1.0745 -1.65,2.4 0,1.3255 0.7387,2.4 1.65,2.4 z"
       fill="#000000"
       id="path9" />
    <path
       d="m 22.5,24.1123 c 1.1029,0 1.9969,-0.5666 1.9969,-1.2656 0,-0.699 -0.894,-1.2656 -1.9969,-1.2656 -1.1028,0 -1.9968,0.5666 -1.9968,1.2656 0,0.699 0.894,1.2656 1.9968,1.2656 z"
       fill="#000000"
       id="path10" />
    <path
       d="m 22.5,18.9938 c 1.1029,0 1.9969,-0.8941 1.9969,-1.9969 C 24.4969,15.894 23.6029,15 22.5,15 c -1.1028,0 -1.9968,0.894 -1.9968,1.9969 0,1.1028 0.894,1.9969 1.9968,1.9969 z"
       fill="#000000"
       id="path11" />
    <path
       d="m 24.9,9.55332 c 0,0 0.1688,0.28125 -0.1875,0.93748 -1.7437,3.1406 -3.4968,3.2063 -3.825,3.4781 -0.375,0.3 -0.525,0.2813 -0.525,0.2813 0.0282,-0.2719 0.0469,-1.3688 0.0657,-1.4719 C 20.7,11.3064 22.9125,11.3252 24.6469,9.8252 24.9188,9.59082 24.9,9.54395 24.9,9.54395 Z m -5.85,6.74998 c 0,0 0.4032,1.125 0.45,2.25 0.0938,1.8 1.8188,1.8469 3,1.8469 v -1.0031 c -0.8906,0 -1.6593,-0.1313 -2.2968,-1.4438 -0.3354,-0.5826 -0.7213,-1.1347 -1.1532,-1.65 z m -0.0468,14.4938 c 0,0 0.6281,-0.7782 1.3687,-2.5969 0.375,-0.9469 1.2938,-1.5 2.1281,-1.5 v -1.4063 c -1.9031,0 -2.8125,0.7032 -2.9062,1.7438 -0.1193,1.2641 -0.3166,2.5196 -0.5906,3.7594 z"
       fill="#000000"
       id="path12" />
    <path
       d="m 25.95,16.3032 c 0,0 -0.4031,1.125 -0.45,2.25 -0.0938,1.8 -1.8187,1.8469 -3,1.8469 v -0.9938 c 0.8906,0 1.6594,-0.1312 2.2969,-1.4531 0.3375,-0.5812 0.7218,-1.1344 1.1531,-1.65 z m 0.0469,14.5031 c 0,0 -0.6281,-0.7875 -1.3688,-2.6062 -0.375,-0.9469 -1.2937,-1.5 -2.1281,-1.5 v -1.3875 c 1.9031,0 2.8125,0.7031 2.9062,1.7437 0.1197,1.261 0.317,2.5134 0.5907,3.75 z"
       fill="#000000"
       id="path13" />
  </g>
  <defs
     id="defs13">
    <clipPath
       id="clip0_2714_15624">
      <rect
         width="60"
         height="45"
         fill="#ffffff"
         id="rect13"
         x="0"
         y="0" />
    </clipPath>
  </defs>
</svg>
